<?xml version="1.0" encoding="utf-8"?>
<!-- Generator: Adobe Illustrator 16.0.0, SVG Export Plug-In . SVG Version: 6.00 Build 0)  -->
<!DOCTYPE svg PUBLIC "-//W3C//DTD SVG 1.1//EN" "http://www.w3.org/Graphics/SVG/1.1/DTD/svg11.dtd">
<svg version="1.1"
	 id="svg6927" sodipodi:docname="_avatar.svg" inkscape:version="0.91 r13725" xmlns:inkscape="http://www.inkscape.org/namespaces/inkscape" xmlns:cc="http://creativecommons.org/ns#" xmlns:rdf="http://www.w3.org/1999/02/22-rdf-syntax-ns#" xmlns:sodipodi="http://sodipodi.sourceforge.net/DTD/sodipodi-0.dtd" xmlns:dc="http://purl.org/dc/elements/1.1/" xmlns:svg="http://www.w3.org/2000/svg"
	 xmlns="http://www.w3.org/2000/svg" xmlns:xlink="http://www.w3.org/1999/xlink" x="0px" y="0px" width="250px" height="250px"
	 viewBox="0 0 250 250" enable-background="new 0 0 250 250" xml:space="preserve">
<sodipodi:namedview  id="namedview7509" inkscape:pageopacity="0" inkscape:current-layer="svg6927" inkscape:pageshadow="2" inkscape:window-height="551" inkscape:window-width="1093" inkscape:window-maximized="1" inkscape:window-x="-8" inkscape:window-y="-8" inkscape:cx="1e+002" showgrid="false" guidetolerance="10" pagecolor="#ffffff" borderopacity="1" bordercolor="#666666" objecttolerance="10" borderlayer="false" gridtolerance="10" inkscape:cy="5e+001" inkscape:zoom="1" showborder="true">
	</sodipodi:namedview>
<g id="g6931" transform="translate(-16.081543,-45.887924)">
	<path id="path6933" fill="#B88532" d="M49,131.362l-20,60h230l-20-60H49z"/>
	<path id="path6935" fill="#9C7231" d="M29.043,191.167h229.95v6.717H29.043V191.167z"/>
</g>
<g id="g6937" transform="translate(-16.081543,-45.887924)">
	<g id="g6939" transform="translate(-80,1)">
		<path id="path6941" d="M201.99,157.144c-0.197,2.754-7.099,5.129-15.417,5.304l0,0c-8.318,0.174-14.901-1.917-14.705-4.671l0,0
			c0.197-2.754,7.099-5.129,15.417-5.303l0,0C195.604,152.299,202.187,154.39,201.99,157.144L201.99,157.144z"/>
		<path id="rect6943" fill="#222222" stroke="#111111" stroke-width="3" d="M141.749,93.657l88.503-3.091
			c1.242-0.043,2.248,0.929,2.248,2.172v57c0,1.243-1.006,2.285-2.248,2.328l-88.503,3.091c-1.242,0.043-2.249-0.929-2.249-2.171
			v-57C139.5,94.743,140.507,93.701,141.749,93.657z"/>
	</g>
</g>
<g id="g7239" transform="translate(-16.081543,-45.887924)">
	<g id="g7241" transform="translate(-80,1)">
		<path id="path7243" d="M245.25,107.525l62.25,2.174c2.205,0.059,2.711,2.461,2.563,4.112l-0.033,41.965L243,153.412v-43.716
			C242.97,108.486,244.041,107.453,245.25,107.525L245.25,107.525z"/>
		<path id="path7245" d="M241.727,155.492l-4.821,22.279c-0.561,1.669,0.97,1.447,0.97,1.447l67.751,1.988
			c0,0,1.312,0.406,1.447-1.104l4.485-22.824L241.727,155.492z"/>
		<path id="path7247" d="M241.477,154.867l-4.821,22.279c-0.561,1.669,0.97,1.447,0.97,1.447l67.751,1.988
			c0,0,1.312,0.406,1.447-1.104l4.392-22.136L241.477,154.867z"/>
		<path id="path7249" d="M243.419,158.978l-0.531,2.165l64.154,2.389l0.436-2.238L243.419,158.978z M242.757,161.978l-0.53,2.165
			l64.153,2.389l0.436-2.238L242.757,161.978z M242.184,164.978l-0.53,2.165l64.154,2.389l0.436-2.238L242.184,164.978z
			 M241.611,167.978l-0.53,2.165l64.153,2.39l0.436-2.239L241.611,167.978z M243.867,156.95l-0.265,1.193l64.153,2.389l0.171-1.266
			L243.867,156.95z"/>
		<polygon id="rect7251" points="245.776,156.444 246.131,156.593 245.73,158.406 245.375,158.257 		"/>
		<polygon id="rect7253" points="247.776,156.664 248.132,156.814 247.73,158.627 247.375,158.478 		"/>
		<polygon id="rect7255" points="249.776,156.664 250.132,156.814 249.73,158.627 249.375,158.478 		"/>
		<polygon id="rect7257" points="251.776,156.664 252.132,156.814 251.73,158.627 251.375,158.478 		"/>
		<polygon id="rect7259" points="253.776,156.842 254.132,156.99 253.73,158.803 253.375,158.655 		"/>
		<polygon id="rect7261" points="255.776,156.842 256.132,156.99 255.73,158.803 255.375,158.655 		"/>
		<polygon id="rect7263" points="257.776,157.018 258.132,157.167 257.73,158.981 257.375,158.831 		"/>
		<polygon id="rect7265" points="259.776,157.018 260.132,157.167 259.73,158.981 259.375,158.831 		"/>
		<polygon id="rect7267" points="261.776,157.018 262.132,157.167 261.73,158.981 261.375,158.831 		"/>
		<polygon id="rect7269" points="263.776,157.372 264.132,157.521 263.73,159.334 263.375,159.185 		"/>
		<polygon id="rect7271" points="265.776,157.372 266.132,157.521 265.73,159.334 265.375,159.185 		"/>
		<polygon id="rect7273" points="267.776,157.372 268.132,157.521 267.731,159.334 267.375,159.185 		"/>
		<polygon id="rect7275" points="269.776,157.372 270.132,157.521 269.731,159.334 269.375,159.185 		"/>
		<polygon id="rect7277" points="271.776,157.747 272.132,157.896 271.731,159.709 271.375,159.56 		"/>
		<polygon id="rect7279" points="273.776,157.747 274.132,157.896 273.731,159.709 273.375,159.56 		"/>
		<polygon id="rect7281" points="275.776,157.747 276.132,157.896 275.731,159.709 275.375,159.56 		"/>
		<polygon id="rect7283" points="277.776,157.747 278.132,157.896 277.731,159.709 277.375,159.56 		"/>
		<polygon id="rect7285" points="279.776,158.1 280.132,158.25 279.731,160.063 279.375,159.913 		"/>
		<polygon id="rect7287" points="281.776,158.1 282.132,158.25 281.731,160.063 281.375,159.913 		"/>
		<polygon id="rect7289" points="283.776,158.1 284.132,158.25 283.731,160.063 283.375,159.913 		"/>
		<polygon id="rect7291" points="285.776,158.1 286.132,158.25 285.731,160.063 285.375,159.913 		"/>
		<polygon id="rect7293" points="287.776,158.1 288.132,158.25 287.731,160.063 287.375,159.913 		"/>
		<polygon id="rect7295" points="289.776,158.1 290.132,158.25 289.731,160.063 289.375,159.913 		"/>
		<polygon id="rect7297" points="291.776,158.413 292.132,158.562 291.731,160.375 291.375,160.226 		"/>
		<polygon id="rect7299" points="293.776,158.413 294.132,158.562 293.731,160.375 293.375,160.226 		"/>
		<polygon id="rect7301" points="295.776,158.413 296.132,158.562 295.731,160.375 295.375,160.226 		"/>
		<polygon id="rect7303" points="297.776,158.413 298.132,158.562 297.731,160.375 297.375,160.226 		"/>
		<polygon id="rect7305" points="299.776,158.766 300.132,158.916 299.731,160.729 299.375,160.579 		"/>
		<polygon id="rect7307" points="301.776,158.766 302.132,158.916 301.731,160.729 301.375,160.579 		"/>
		<polygon id="rect7309" points="303.776,158.954 304.132,159.103 303.731,160.916 303.375,160.767 		"/>
		<polygon id="rect7311" points="305.776,158.954 306.132,159.103 305.731,160.916 305.375,160.767 		"/>
		<polygon id="rect7313" points="246.109,158.825 246.445,159.07 245.835,161.587 245.499,161.343 		"/>
		<polygon id="rect7315" points="248.921,158.825 249.257,159.07 248.648,161.586 248.31,161.343 		"/>
		<polygon id="rect7317" points="251.7,159.047 252.037,159.29 251.426,161.807 251.089,161.564 		"/>
		<polygon id="rect7319" points="254.511,159.047 254.849,159.29 254.239,161.807 253.902,161.563 		"/>
		<polygon id="rect7321" points="257.359,159.281 257.696,159.525 257.085,162.042 256.749,161.798 		"/>
		<polygon id="rect7323" points="260.171,159.325 260.507,159.57 259.898,162.086 259.56,161.843 		"/>
		<polygon id="rect7325" points="262.95,159.502 263.287,159.746 262.676,162.263 262.339,162.019 		"/>
		<polygon id="rect7327" points="265.762,159.547 266.099,159.79 265.489,162.307 265.152,162.064 		"/>
		<polygon id="rect7329" points="268.727,159.532 269.064,159.777 268.455,162.294 268.117,162.05 		"/>
		<polygon id="rect7331" points="271.54,159.621 271.876,159.865 271.267,162.382 270.929,162.138 		"/>
		<polygon id="rect7333" points="274.318,159.754 274.656,159.998 274.045,162.515 273.708,162.271 		"/>
		<polygon id="rect7335" points="277.13,159.842 277.468,160.086 276.857,162.603 276.521,162.359 		"/>
		<polygon id="rect7337" points="279.977,160.032 280.314,160.277 279.705,162.794 279.367,162.55 		"/>
		<polygon id="rect7339" points="282.79,160.032 283.126,160.277 282.517,162.794 282.179,162.55 		"/>
		<polygon id="rect7341" points="285.568,160.254 285.906,160.498 285.295,163.015 284.958,162.771 		"/>
		<polygon id="rect7343" points="288.38,160.298 288.718,160.542 288.108,163.059 287.771,162.815 		"/>
		<polygon id="rect7345" points="291.257,160.416 291.595,160.66 290.984,163.177 290.648,162.933 		"/>
		<polygon id="rect7347" points="294.07,160.461 294.408,160.704 293.796,163.221 293.46,162.978 		"/>
		<polygon id="rect7349" points="296.849,160.637 297.185,160.882 296.576,163.399 296.239,163.155 		"/>
		<polygon id="rect7351" points="299.662,160.682 299.998,160.926 299.388,163.443 299.05,163.198 		"/>
		<polygon id="rect7353" points="304.701,160.916 305.039,161.16 304.428,163.677 304.091,163.433 		"/>
		<polygon id="rect7355" points="246.639,161.898 246.976,162.142 246.367,164.659 246.029,164.415 		"/>
		<polygon id="rect7357" points="249.452,161.943 249.789,162.186 249.179,164.703 248.841,164.459 		"/>
		<polygon id="rect7359" points="252.23,162.119 252.568,162.364 251.958,164.881 251.621,164.636 		"/>
		<polygon id="rect7361" points="255.042,162.163 255.38,162.407 254.769,164.925 254.433,164.68 		"/>
		<polygon id="rect7363" points="257.889,162.31 258.226,162.554 257.617,165.071 257.279,164.827 		"/>
		<polygon id="rect7365" points="260.702,162.354 261.039,162.598 260.429,165.115 260.091,164.871 		"/>
		<polygon id="rect7367" points="263.48,162.531 263.818,162.775 263.208,165.292 262.871,165.048 		"/>
		<polygon id="rect7369" points="266.292,162.619 266.63,162.864 266.019,165.38 265.683,165.136 		"/>
		<polygon id="rect7371" points="269.258,162.65 269.595,162.894 268.985,165.411 268.648,165.167 		"/>
		<polygon id="rect7373" points="272.07,162.65 272.408,162.894 271.797,165.41 271.46,165.167 		"/>
		<polygon id="rect7375" points="274.849,162.871 275.186,163.115 274.576,165.632 274.24,165.388 		"/>
		<polygon id="rect7377" points="277.662,162.871 277.999,163.115 277.388,165.632 277.051,165.388 		"/>
		<polygon id="rect7379" points="280.508,163.15 280.845,163.394 280.235,165.911 279.898,165.667 		"/>
		<polygon id="rect7381" points="283.32,163.15 283.658,163.394 283.047,165.911 282.71,165.667 		"/>
		<polygon id="rect7383" points="286.099,163.326 286.436,163.571 285.826,166.088 285.49,165.844 		"/>
		<polygon id="rect7385" points="288.912,163.371 289.249,163.615 288.638,166.132 288.301,165.888 		"/>
		<polygon id="rect7387" points="291.789,163.533 292.125,163.778 291.515,166.295 291.178,166.051 		"/>
		<polygon id="rect7389" points="294.601,163.533 294.938,163.778 294.328,166.295 293.991,166.051 		"/>
		<polygon id="rect7391" points="297.379,163.755 297.716,163.999 297.107,166.516 296.769,166.272 		"/>
		<polygon id="rect7393" points="300.192,163.755 300.529,163.998 299.919,166.515 299.582,166.272 		"/>
		<polygon id="rect7395" points="304.107,163.952 304.444,164.197 303.833,166.714 303.498,166.469 		"/>
		<polygon id="rect7397" points="247.639,164.943 247.976,165.187 247.367,167.703 247.029,167.46 		"/>
		<polygon id="rect7399" points="250.452,164.943 250.789,165.186 250.179,167.703 249.841,167.46 		"/>
		<polygon id="rect7401" points="253.23,165.164 253.568,165.407 252.958,167.925 252.621,167.681 		"/>
		<polygon id="rect7403" points="256.042,165.163 256.38,165.407 255.77,167.925 255.433,167.68 		"/>
		<polygon id="rect7405" points="258.89,165.354 259.226,165.598 258.617,168.115 258.279,167.871 		"/>
		<polygon id="rect7407" points="261.702,165.354 262.039,165.598 261.429,168.115 261.091,167.871 		"/>
		<polygon id="rect7409" points="264.48,165.575 264.818,165.819 264.208,168.336 263.871,168.092 		"/>
		<polygon id="rect7411" points="267.292,165.663 267.63,165.907 267.02,168.425 266.683,168.18 		"/>
		<polygon id="rect7413" points="270.258,165.65 270.595,165.894 269.985,168.411 269.648,168.167 		"/>
		<polygon id="rect7415" points="273.07,165.65 273.408,165.894 272.797,168.41 272.46,168.167 		"/>
		<polygon id="rect7417" points="275.849,165.871 276.187,166.115 275.576,168.632 275.24,168.388 		"/>
		<polygon id="rect7419" points="278.662,165.871 278.999,166.115 278.388,168.632 278.051,168.388 		"/>
		<polygon id="rect7421" points="281.508,166.15 281.845,166.394 281.235,168.911 280.898,168.667 		"/>
		<polygon id="rect7423" points="284.321,166.15 284.658,166.394 284.047,168.911 283.71,168.667 		"/>
		<polygon id="rect7425" points="287.099,166.371 287.437,166.615 286.826,169.132 286.49,168.888 		"/>
		<polygon id="rect7427" points="289.912,166.371 290.249,166.615 289.638,169.132 289.301,168.888 		"/>
		<polygon id="rect7429" points="292.789,166.533 293.125,166.778 292.515,169.295 292.178,169.051 		"/>
		<polygon id="rect7431" points="300.442,166.755 300.779,166.999 300.169,169.516 299.832,169.272 		"/>
		<polygon id="rect7433" points="303.357,166.953 303.695,167.197 303.083,169.714 302.748,169.47 		"/>
		<polygon id="rect7435" points="244.389,167.854 244.726,168.098 244.117,170.615 243.779,170.371 		"/>
		<polygon id="rect7437" points="247.202,167.942 247.539,168.186 246.928,170.703 246.591,170.459 		"/>
		<polygon id="rect7439" points="249.98,168.075 250.318,168.319 249.707,170.836 249.371,170.592 		"/>
		<polygon id="rect7441" points="252.792,168.163 253.13,168.407 252.519,170.925 252.183,170.681 		"/>
		<polygon id="rect7443" points="255.639,168.266 255.976,168.51 255.367,171.027 255.029,170.782 		"/>
		<polygon id="rect7445" points="258.452,168.354 258.789,168.598 258.179,171.115 257.841,170.87 		"/>
		<polygon id="rect7447" points="261.23,168.487 261.568,168.731 260.957,171.247 260.621,171.003 		"/>
		<polygon id="rect7449" points="264.042,168.575 264.38,168.819 263.769,171.336 263.433,171.092 		"/>
		<polygon id="rect7451" points="282.82,169.15 283.158,169.394 282.547,171.91 282.21,171.667 		"/>
		<polygon id="rect7453" points="285.599,169.371 285.936,169.615 285.326,172.132 284.989,171.888 		"/>
		<polygon id="rect7455" points="288.412,169.37 288.749,169.615 288.138,172.132 287.801,171.888 		"/>
		<polygon id="rect7457" points="291.289,169.533 291.625,169.778 291.015,172.294 290.678,172.05 		"/>
		<polygon id="rect7459" points="294.101,169.533 294.438,169.778 293.828,172.294 293.491,172.05 		"/>
		<polygon id="rect7461" points="296.879,169.755 297.216,169.998 296.607,172.515 296.269,172.272 		"/>
		<polygon id="rect7463" points="299.692,169.755 300.029,169.998 299.419,172.515 299.082,172.272 		"/>
		<polygon id="rect7465" points="302.732,169.952 303.069,170.197 302.458,172.714 302.122,172.47 		"/>
		<path id="rect7467" d="M265.962,171.831l14.004,0.458c0.321,0.011,0.513,0.271,0.427,0.581l-1.344,4.848
			c-0.086,0.311-0.417,0.553-0.738,0.543l-14.005-0.459c-0.321-0.01-0.513-0.271-0.427-0.581l1.344-4.847
			C265.309,172.064,265.64,171.82,265.962,171.831z"/>
	</g>
</g>
<g id="g7469" transform="translate(-16.081543,-45.887924)">
	<path id="path7471" fill="#ED6A3B" d="M145.697,244.792c0,0-45.676,5.368-49.393,14.455c-3.717,9.086-5.782,21.27-5.782,21.27
		s45.409,8.818,55.242,9.563"/>
	<path id="path7473" fill="#ECD79C" d="M145.843,225.298l0.086,23.363c0,0-8.936,0.229-13.726-5.549l2.336-21.611L145.843,225.298z"
		/>
	<path id="path7475" fill="#E25D2C" d="M145.682,244.792c0,0,45.092,5.368,48.81,14.455c3.717,9.086,5.781,21.27,5.781,21.27
		s-44.824,8.818-54.657,9.563"/>
	<path id="path7477" fill="#D7C281" d="M145.376,225.298l-0.085,23.363c0,0,8.937,0.229,13.726-5.549l-2.336-21.611L145.376,225.298
		z"/>
	<path id="path7479" fill="#E3CD91" d="M186.06,170.644c0,0,13.307-5.597,9.346,11.681c-3.687,16.082-11.682,11.682-11.682,11.682
		s-3.26,13.137-9.004,21.943c-4.508,6.911-17.344,18.78-29.545,18.814l-1.756-31.584l1.756-69.917l29.399,3.598L186.06,170.644z"/>
	<path id="path7481" fill="#ECD79C" d="M104.442,170.644c0,0-13.306-5.597-9.345,11.681c3.686,16.082,11.681,11.682,11.681,11.682
		s3.26,13.137,9.004,21.943c4.508,6.911,17.343,18.749,29.545,18.783c0.921-34.688,1.258-70.049,0-101.47l-29.4,3.598
		L104.442,170.644z"/>
	<path id="path7483" fill="#5D4310" d="M122.087,139.108c-8.034,3.438-13.249,20.348-14.044,39.9
		c-0.072,1.774-4.336,0.219-4.336,0.219c-2.839-8.871-5.604-27.787-2.292-37.858c0,0,1.561,4.781,1.503,3.747
		c0,0,1.692-11.975,4.033-15.496c0,0,0.174,6.379,0.453,5.306c0.861-3.314,12.645-19.252,12.862-25.27
		c0.044-1.211,3.665,3.576,9.728,4.917c-2.462-2.793-4.721-3.826-4.721-3.826c37.575,1.489,79.628,10.396,62.106,68.805
		c0,0-4.054,1.031-4.234-0.438c-0.648-17.157-5.665-37.879-14.376-40.683C150.896,132.886,136.896,133.105,122.087,139.108
		L122.087,139.108z"/>
	<path id="path7485" fill="#FFFFFF" d="M131.839,209.906c13.885,1.316,13.882,1.338,28.014,0c5.401-0.511-5.859,9.602-14.008,9.639
		C137.696,219.581,126.528,209.403,131.839,209.906z"/>
	<path id="path7487" fill="#5D4310" d="M138.076,166.605c0,0-18.341-2.404-22.283,3.729c0,0,5.847-0.918,8.12-1.107
		c4.639-0.386,11.097,1.022,13.872,1.022S138.076,166.605,138.076,166.605L138.076,166.605z M152.634,166.605
		c0,0,18.342-2.404,22.284,3.729c0,0-5.848-0.918-8.12-1.107c-4.639-0.386-11.098,1.022-13.871,1.022
		C150.152,170.248,152.634,166.605,152.634,166.605L152.634,166.605z"/>
	<path id="path7489" fill="#D4BC7D" d="M135.462,177.646c-0.196,3.046-2.195,4.233-6.814,4.233s-8.613-1.125-8.744-4.087
		c-0.135-3.068,4.435-5.103,9.054-5.103C133.576,172.69,135.648,174.765,135.462,177.646z"/>
	<path id="path7491" fill="#FFFFFF" d="M135.462,178.917c-0.723,2.965-3.046,4.889-7.106,4.525
		c-6.133-0.549-8.598-1.706-8.598-4.672c0-2.965,4.581-4.5,9.2-4.5C133.576,174.271,136.164,176.036,135.462,178.917z"/>
	<path id="path7493" fill="#13C890" d="M131.952,178.251c0,2.24-1.814,4.056-4.052,4.056c-2.238,0-4.052-1.815-4.052-4.056
		c0-1.713,1.061-3.178,2.561-3.771c0.996-0.185,1.014-0.201,2.236-0.216C130.526,174.615,131.952,176.266,131.952,178.251
		L131.952,178.251z"/>
	<circle id="ellipse7495" fill="#222222" cx="127.793" cy="178.314" r="0"/>
	<path id="path7497" fill="#D4BC7D" d="M155.208,177.646c0.196,3.046,2.195,4.233,6.814,4.233s8.613-1.125,8.744-4.087
		c0.135-3.068-4.436-5.103-9.055-5.103C157.094,172.69,155.023,174.765,155.208,177.646z"/>
	<path id="path7499" fill="#FFFFFF" d="M155.208,178.917c0.723,2.965,3.047,4.889,7.106,4.525c6.133-0.549,8.598-1.706,8.598-4.672
		c0-2.965-4.581-4.5-9.2-4.5C157.094,174.271,154.505,176.036,155.208,178.917z"/>
	<path id="path7501" fill="#13C890" d="M158.718,178.251c0,2.24,1.814,4.056,4.053,4.056c2.237,0,4.051-1.815,4.051-4.056
		c0-1.713-1.061-3.178-2.561-3.771c-0.995-0.185-1.014-0.201-2.234-0.216C160.144,174.615,158.718,176.266,158.718,178.251
		L158.718,178.251z"/>
	<circle id="ellipse7503" fill="#222222" cx="162.876" cy="178.314" r="0"/>
	<path id="path7505" fill="#D7C281" d="M145.972,203.14c3.924,0.107,9.871-5.001,7.125-4.765c-4.436,0.382-7.125,0.535-7.125,0.535
		V203.14z M146.017,203.14c-3.924,0.107-9.868-5.018-7.124-4.765c4.144,0.382,7.124,0.535,7.124,0.535V203.14z M133.494,231.613
		c0,0,2,12.665,12.267,17.046c6.178,2.636,13.242-5.313,13.242-5.313l-1.299-12.219
		C157.705,231.127,145.437,238.872,133.494,231.613L133.494,231.613z"/>
	<path id="path7507" fill="#F97E57" d="M131.979,242.76c0,0-2.49,9.133-0.67,20.042c6.373-8.008,14.273-14.162,14.273-14.162
		S138.404,248.601,131.979,242.76z M159.176,242.76c0,0,2.696,8.823,0.876,19.731c-6.373-8.626-14.297-13.852-14.297-13.852
		S152.751,248.601,159.176,242.76z"/>
</g>
</svg>
