<?xml version="1.0" encoding="utf-8"?>
<!-- Generator: Adobe Illustrator 16.0.0, SVG Export Plug-In . SVG Version: 6.00 Build 0)  -->
<!DOCTYPE svg PUBLIC "-//W3C//DTD SVG 1.1//EN" "http://www.w3.org/Graphics/SVG/1.1/DTD/svg11.dtd">
<svg version="1.1" id="Layer_1" xmlns="http://www.w3.org/2000/svg" xmlns:xlink="http://www.w3.org/1999/xlink" x="0px" y="0px"
	 width="250px" height="250px" viewBox="0 0 250 250" enable-background="new 0 0 250 250" xml:space="preserve">
<path fill="#FF00E1" d="M29.9,85.5l-20,60h230l-20-60H29.9z"/>
<path fill="#FFD400" d="M10,145.3h230v6.7H10V145.3z"/>
<path d="M105.9,112.3c-0.2,2.8-7.1,5.1-15.4,5.3l0,0c-8.3,0.2-14.9-1.9-14.7-4.7l0,0c0.2-2.8,7.1-5.1,15.4-5.3l0,0
	C99.5,107.4,106.1,109.5,105.9,112.3L105.9,112.3z"/>
<path d="M45.7,48.8l88.5-3.1c1.2,0,2.2,0.9,2.2,2.2v57c0,1.2-1,2.3-2.2,2.3l-88.5,3.1c-1.2,0-2.2-0.9-2.2-2.2v-57
	C43.4,49.9,44.4,48.8,45.7,48.8z"/>
<path d="M150.6,64.4l62.3,2.2c2.2,0.1,2.7,2.5,2.6,4.1v42l-67-2.4V66.6C148.3,65.4,149.4,64.4,150.6,64.4L150.6,64.4z"/>
<path d="M145.6,110.6l-4.8,22.3c-0.6,1.7,1,1.4,1,1.4l67.8,2c0,0,1.3,0.4,1.4-1.1l4.5-22.8L145.6,110.6z"/>
<path d="M145.4,110l-4.8,22.3c-0.6,1.7,1,1.4,1,1.4l67.8,2c0,0,1.3,0.4,1.4-1.1l4.4-22.1L145.4,110z"/>
<path d="M147.3,114.1l-0.5,2.2l64.2,2.4l0.4-2.2L147.3,114.1z M146.7,117.1l-0.5,2.2l64.2,2.4l0.4-2.2L146.7,117.1z M146.1,120.1
	l-0.5,2.2l64.2,2.4l0.4-2.2L146.1,120.1z M145.5,123.1l-0.5,2.2l64.2,2.4l0.4-2.2L145.5,123.1z M147.8,112.1l-0.3,1.2l64.2,2.4
	l0.2-1.3L147.8,112.1z"/>
<polygon points="149.7,111.6 150,111.7 149.6,113.5 149.3,113.4 "/>
<polygon points="151.7,111.8 152.1,111.9 151.6,113.7 151.3,113.6 "/>
<polygon points="153.7,111.8 154.1,111.9 153.6,113.7 153.3,113.6 "/>
<polygon points="155.7,111.8 156.1,111.9 155.6,113.7 155.3,113.6 "/>
<polygon points="157.7,112 158.1,112.1 157.6,113.9 157.3,113.8 "/>
<polygon points="159.7,112 160.1,112.1 159.6,113.9 159.3,113.8 "/>
<polygon points="161.7,112.1 162.1,112.3 161.6,114.1 161.3,113.9 "/>
<polygon points="163.7,112.1 164.1,112.3 163.6,114.1 163.3,113.9 "/>
<polygon points="165.7,112.1 166.1,112.3 165.6,114.1 165.3,113.9 "/>
<polygon points="167.7,112.5 168.1,112.6 167.6,114.4 167.3,114.3 "/>
<polygon points="169.7,112.5 170.1,112.6 169.6,114.4 169.3,114.3 "/>
<polygon points="171.7,112.5 172.1,112.6 171.6,114.4 171.3,114.3 "/>
<polygon points="173.7,112.5 174.1,112.6 173.6,114.4 173.3,114.3 "/>
<polygon points="175.7,112.9 176.1,113 175.6,114.8 175.3,114.7 "/>
<polygon points="177.7,112.9 178.1,113 177.6,114.8 177.3,114.7 "/>
<polygon points="179.7,112.9 180.1,113 179.6,114.8 179.3,114.7 "/>
<polygon points="181.7,112.9 182.1,113 181.6,114.8 181.3,114.7 "/>
<polygon points="183.7,113.2 184.1,113.4 183.6,115.2 183.3,115 "/>
<polygon points="185.7,113.2 186.1,113.4 185.6,115.2 185.3,115 "/>
<polygon points="187.7,113.2 188.1,113.4 187.6,115.2 187.3,115 "/>
<polygon points="189.7,113.2 190.1,113.4 189.6,115.2 189.3,115 "/>
<polygon points="191.7,113.2 192.1,113.4 191.6,115.2 191.3,115 "/>
<polygon points="193.7,113.2 194.1,113.4 193.6,115.2 193.3,115 "/>
<polygon points="195.7,113.5 196.1,113.7 195.6,115.5 195.3,115.3 "/>
<polygon points="197.7,113.5 198.1,113.7 197.6,115.5 197.3,115.3 "/>
<polygon points="199.7,113.5 200.1,113.7 199.6,115.5 199.3,115.3 "/>
<polygon points="201.7,113.5 202.1,113.7 201.6,115.5 201.3,115.3 "/>
<polygon points="203.7,113.9 204.1,114 203.6,115.8 203.3,115.7 "/>
<polygon points="205.7,113.9 206.1,114 205.6,115.8 205.3,115.7 "/>
<polygon points="207.7,114.1 208.1,114.2 207.6,116 207.3,115.9 "/>
<polygon points="209.7,114.1 210.1,114.2 209.6,116 209.3,115.9 "/>
<polygon points="150,113.9 150.4,114.2 149.8,116.7 149.4,116.5 "/>
<polygon points="152.8,113.9 153.2,114.2 152.6,116.7 152.2,116.5 "/>
<polygon points="155.6,114.2 156,114.4 155.3,116.9 155,116.7 "/>
<polygon points="158.4,114.2 158.8,114.4 158.2,116.9 157.8,116.7 "/>
<polygon points="161.3,114.4 161.6,114.6 161,117.2 160.7,116.9 "/>
<polygon points="164.1,114.4 164.4,114.7 163.8,117.2 163.5,117 "/>
<polygon points="166.9,114.6 167.2,114.9 166.6,117.4 166.3,117.1 "/>
<polygon points="169.7,114.7 170,114.9 169.4,117.4 169.1,117.2 "/>
<polygon points="172.6,114.6 173,114.9 172.4,117.4 172,117.2 "/>
<polygon points="175.5,114.7 175.8,115 175.2,117.5 174.8,117.3 "/>
<polygon points="178.2,114.9 178.6,115.1 178,117.6 177.6,117.4 "/>
<polygon points="181,115 181.4,115.2 180.8,117.7 180.4,117.5 "/>
<polygon points="183.9,115.1 184.2,115.4 183.6,117.9 183.3,117.7 "/>
<polygon points="186.7,115.1 187,115.4 186.4,117.9 186.1,117.7 "/>
<polygon points="189.5,115.4 189.8,115.6 189.2,118.1 188.9,117.9 "/>
<polygon points="192.3,115.4 192.6,115.7 192,118.2 191.7,117.9 "/>
<polygon points="195.2,115.5 195.5,115.8 194.9,118.3 194.6,118 "/>
<polygon points="198,115.6 198.3,115.8 197.7,118.3 197.4,118.1 "/>
<polygon points="200.8,115.7 201.1,116 200.5,118.5 200.2,118.3 "/>
<polygon points="203.6,115.8 203.9,116 203.3,118.6 203,118.3 "/>
<polygon points="208.6,116 209,116.3 208.3,118.8 208,118.5 "/>
<polygon points="150.6,117 150.9,117.3 150.3,119.8 149.9,119.5 "/>
<polygon points="153.4,117.1 153.7,117.3 153.1,119.8 152.8,119.6 "/>
<polygon points="156.1,117.2 156.5,117.5 155.9,120 155.5,119.7 "/>
<polygon points="159,117.3 159.3,117.5 158.7,120 158.4,119.8 "/>
<polygon points="161.8,117.4 162.1,117.7 161.5,120.2 161.2,119.9 "/>
<polygon points="164.6,117.5 165,117.7 164.3,120.2 164,120 "/>
<polygon points="167.4,117.6 167.7,117.9 167.1,120.4 166.8,120.2 "/>
<polygon points="170.2,117.7 170.5,118 169.9,120.5 169.6,120.2 "/>
<polygon points="173.2,117.8 173.5,118 172.9,120.5 172.6,120.3 "/>
<polygon points="176,117.8 176.3,118 175.7,120.5 175.4,120.3 "/>
<polygon points="178.8,118 179.1,118.2 178.5,120.7 178.2,120.5 "/>
<polygon points="181.6,118 181.9,118.2 181.3,120.7 181,120.5 "/>
<polygon points="184.4,118.3 184.8,118.5 184.2,121 183.8,120.8 "/>
<polygon points="187.2,118.3 187.6,118.5 187,121 186.6,120.8 "/>
<polygon points="190,118.4 190.4,118.7 189.7,121.2 189.4,121 "/>
<polygon points="192.8,118.5 193.2,118.7 192.6,121.2 192.2,121 "/>
<polygon points="195.7,118.6 196,118.9 195.4,121.4 195.1,121.2 "/>
<polygon points="198.5,118.6 198.9,118.9 198.2,121.4 197.9,121.2 "/>
<polygon points="201.3,118.9 201.6,119.1 201,121.6 200.7,121.4 "/>
<polygon points="204.1,118.9 204.4,119.1 203.8,121.6 203.5,121.4 "/>
<polygon points="208,119.1 208.4,119.3 207.8,121.8 207.4,121.6 "/>
<polygon points="151.6,120.1 151.9,120.3 151.3,122.8 150.9,122.6 "/>
<polygon points="154.4,120.1 154.7,120.3 154.1,122.8 153.8,122.6 "/>
<polygon points="157.1,120.3 157.5,120.5 156.9,123 156.5,122.8 "/>
<polygon points="160,120.3 160.3,120.5 159.7,123 159.4,122.8 "/>
<polygon points="162.8,120.5 163.1,120.7 162.5,123.2 162.2,123 "/>
<polygon points="165.6,120.5 166,120.7 165.3,123.2 165,123 "/>
<polygon points="168.4,120.7 168.7,120.9 168.1,123.4 167.8,123.2 "/>
<polygon points="171.2,120.8 171.5,121 170.9,123.5 170.6,123.3 "/>
<polygon points="174.2,120.8 174.5,121 173.9,123.5 173.6,123.3 "/>
<polygon points="177,120.8 177.3,121 176.7,123.5 176.4,123.3 "/>
<polygon points="179.8,121 180.1,121.2 179.5,123.7 179.2,123.5 "/>
<polygon points="182.6,121 182.9,121.2 182.3,123.7 182,123.5 "/>
<polygon points="185.4,121.3 185.8,121.5 185.2,124 184.8,123.8 "/>
<polygon points="188.2,121.3 188.6,121.5 188,124 187.6,123.8 "/>
<polygon points="191,121.5 191.4,121.7 190.7,124.2 190.4,124 "/>
<polygon points="193.8,121.5 194.2,121.7 193.6,124.2 193.2,124 "/>
<polygon points="196.7,121.6 197,121.9 196.4,124.4 196.1,124.2 "/>
<polygon points="204.4,121.9 204.7,122.1 204.1,124.6 203.8,124.4 "/>
<polygon points="207.3,122.1 207.6,122.3 207,124.8 206.7,124.6 "/>
<polygon points="148.3,123 148.6,123.2 148,125.7 147.7,125.5 "/>
<polygon points="151.1,123.1 151.5,123.3 150.8,125.8 150.5,125.6 "/>
<polygon points="153.9,123.2 154.2,123.4 153.6,125.9 153.3,125.7 "/>
<polygon points="156.7,123.3 157,123.5 156.4,126 156.1,125.8 "/>
<polygon points="159.6,123.4 159.9,123.6 159.3,126.1 158.9,125.9 "/>
<polygon points="162.4,123.5 162.7,123.7 162.1,126.2 161.8,126 "/>
<polygon points="165.1,123.6 165.5,123.8 164.9,126.4 164.5,126.1 "/>
<polygon points="168,123.7 168.3,123.9 167.7,126.4 167.4,126.2 "/>
<polygon points="186.7,124.3 187.1,124.5 186.5,127 186.1,126.8 "/>
<polygon points="189.5,124.5 189.9,124.7 189.2,127.2 188.9,127 "/>
<polygon points="192.3,124.5 192.7,124.7 192.1,127.2 191.7,127 "/>
<polygon points="195.2,124.6 195.5,124.9 194.9,127.4 194.6,127.2 "/>
<polygon points="198,124.6 198.4,124.9 197.7,127.4 197.4,127.2 "/>
<polygon points="200.8,124.9 201.1,125.1 200.5,127.6 200.2,127.4 "/>
<polygon points="203.6,124.9 203.9,125.1 203.3,127.6 203,127.4 "/>
<polygon points="206.7,125.1 207,125.3 206.4,127.8 206,127.6 "/>
<path d="M169.9,126.9l14,0.5c0.3,0,0.5,0.3,0.4,0.6l-1.3,4.8c-0.1,0.3-0.4,0.6-0.7,0.5l-14-0.5c-0.3,0-0.5-0.3-0.4-0.6l1.3-4.8
	C169.2,127.2,169.6,126.9,169.9,126.9z"/>
<path fill="#FF0000" d="M129.7,198.9c0,0-43.7,6.5-49.4,14.5c-6.2,8.8-10.8,36.6-10.8,36.6s55.1,0,65.2,0v-50.3L129.7,198.9z"/>
<path d="M129.8,179.4l0.1,23.4c0,0-8.9,0.2-13.7-5.5l2.3-21.6L129.8,179.4z"/>
<path d="M129.3,179.4l-0.1,23.4c0,0,8.9,0.2,13.7-5.5l-2.3-21.6L129.3,179.4z"/>
<path d="M170,124.8c0,0,13.3-5.6,9.3,11.7c-3.7,16.1-11.7,11.7-11.7,11.7s-3.3,13.1-9,21.9c-4.5,6.9-17.3,18.8-29.5,18.8l-1.8-31.6
	l1.8-69.9l29.4,3.6L170,124.8z"/>
<path d="M88.4,124.8c0,0-13.3-5.6-9.3,11.7c3.7,16.1,11.7,11.7,11.7,11.7s3.3,13.1,9,21.9c4.5,6.9,17.3,18.7,29.5,18.8
	c0.9-34.7,1.3-70,0-101.5L99.8,91L88.4,124.8z"/>
<path d="M106,93.2c-8,3.4-13.2,20.3-14,39.9c-0.1,1.8-4.3,0.2-4.3,0.2c-2.8-8.9-5.6-27.8-2.3-37.9c0,0,1.6,4.8,1.5,3.7
	c0,0,1.7-12,4-15.5c0,0,0.2,6.4,0.5,5.3c0.9-3.3,12.6-19.3,12.9-25.3c0-1.2,3.7,3.6,9.7,4.9c-2.5-2.8-4.7-3.8-4.7-3.8
	c37.6,1.5,79.6,10.4,62.1,68.8c0,0-4.1,1-4.2-0.4c-0.6-17.2-5.7-37.9-14.4-40.7C134.8,87,120.8,87.2,106,93.2L106,93.2z"/>
<path d="M115.8,164c13.9,1.3,13.9,1.3,28,0c5.4-0.5-5.9,9.6-14,9.6C121.6,173.7,110.4,163.5,115.8,164z"/>
<path d="M122,120.7c0,0-18.3-2.4-22.3,3.7c0,0,5.8-0.9,8.1-1.1c4.6-0.4,11.1,1,13.9,1C124.5,124.3,122,120.7,122,120.7L122,120.7z
	 M136.6,120.7c0,0,18.3-2.4,22.3,3.7c0,0-5.8-0.9-8.1-1.1c-4.6-0.4-11.1,1-13.9,1C134.1,124.4,136.6,120.7,136.6,120.7L136.6,120.7z
	"/>
<path d="M119.4,131.8c-0.2,3-2.2,4.2-6.8,4.2s-8.6-1.1-8.7-4.1c-0.1-3.1,4.4-5.1,9.1-5.1C117.5,126.8,119.6,128.9,119.4,131.8z"/>
<path d="M119.4,133c-0.7,3-3,4.9-7.1,4.5c-6.1-0.5-8.6-1.7-8.6-4.7s4.6-4.5,9.2-4.5C117.5,128.4,120.1,130.1,119.4,133z"/>
<path d="M115.9,132.4c0,2.2-1.8,4.1-4.1,4.1c-2.2,0-4.1-1.8-4.1-4.1c0-1.7,1.1-3.2,2.6-3.8c1-0.2,1-0.2,2.2-0.2
	C114.4,128.7,115.9,130.4,115.9,132.4L115.9,132.4z"/>
<circle cx="111.7" cy="132.4" r="0"/>
<path d="M139.1,131.8c0.2,3,2.2,4.2,6.8,4.2c4.6,0,8.6-1.1,8.7-4.1c0.1-3.1-4.4-5.1-9.1-5.1C141,126.8,138.9,128.9,139.1,131.8z"/>
<path d="M139.1,133c0.7,3,3,4.9,7.1,4.5c6.1-0.5,8.6-1.7,8.6-4.7s-4.6-4.5-9.2-4.5C141,128.4,138.4,130.1,139.1,133z"/>
<path d="M142.6,132.4c0,2.2,1.8,4.1,4.1,4.1c2.2,0,4.1-1.8,4.1-4.1c0-1.7-1.1-3.2-2.6-3.8c-1-0.2-1-0.2-2.2-0.2
	C144.1,128.7,142.6,130.4,142.6,132.4L142.6,132.4z"/>
<circle cx="146.8" cy="132.4" r="0"/>
<path d="M129.9,157.3c3.9,0.1,9.9-5,7.1-4.8c-4.4,0.4-7.1,0.5-7.1,0.5V157.3z M129.9,157.3c-3.9,0.1-9.9-5-7.1-4.8
	c4.1,0.4,7.1,0.5,7.1,0.5V157.3z M117.4,185.7c0,0,2,12.7,12.3,17c6.2,2.6,13.2-5.3,13.2-5.3l-1.3-12.2
	C141.6,185.2,129.4,193,117.4,185.7L117.4,185.7z"/>
<path d="M115.9,196.9c0,0-2.5,9.1-0.7,20c6.4-8,14.3-14.2,14.3-14.2S122.3,202.7,115.9,196.9z M143.1,196.9c0,0,2.7,8.8,0.9,19.7
	c-6.4-8.6-14.3-13.9-14.3-13.9S136.7,202.7,143.1,196.9z"/>
<circle fill="#0B2DFC" cx="35.6" cy="65.5" r="5.1"/>
<path fill="#FF0000" d="M129.6,250c10.1,0,60.2,0,60.2,0s-4.6-27.8-10.8-36.6c-5.7-8-49.4-14.5-49.4-14.5V250z"/>
<rect x="210.3" y="151.8" fill="#1700F9" width="7" height="42.3"/>
<polygon fill="#00FF48" points="207.8,187.3 207.8,151.8 210.3,151.8 210.3,194.1 "/>
<rect x="32.5" y="151.8" fill="#1700F9" width="7" height="42.3"/>
<polygon fill="#00FF48" points="42,187.3 42,151.8 39.5,151.8 39.5,194.1 "/>
</svg>
