<?xml version="1.0" encoding="utf-8"?>
<!-- Generator: Adobe Illustrator 16.0.0, SVG Export Plug-In . SVG Version: 6.00 Build 0)  -->
<!DOCTYPE svg PUBLIC "-//W3C//DTD SVG 1.1//EN" "http://www.w3.org/Graphics/SVG/1.1/DTD/svg11.dtd">
<svg version="1.1" id="Layer_1" xmlns="http://www.w3.org/2000/svg" xmlns:xlink="http://www.w3.org/1999/xlink" x="0px" y="0px"
	 width="250px" height="250px" viewBox="0 0 250 250" enable-background="new 0 0 250 250" xml:space="preserve">
<g>
	<polygon points="186.9,117.8 187.4,115.6 185.1,115.5 184.7,117.7 	"/>
	<polygon points="180.3,123.6 182.6,123.7 183,121.5 180.8,121.4 	"/>
	<polygon points="184.1,120.7 186.3,120.8 186.7,118.6 184.5,118.5 	"/>
	<polygon points="170.7,124 170.3,126.2 172.5,126.3 173,124.1 	"/>
	<polygon points="173.9,124.2 173.4,126.4 175.7,126.4 176.2,124.2 	"/>
	<polygon points="196,124.2 198.2,124.3 198.6,122.1 196.4,122 	"/>
	<polygon points="183.5,123.7 185.7,123.8 186.1,121.6 183.9,121.5 	"/>
	<polygon points="192.7,124.9 192.2,127.1 194.5,127.2 194.9,125 	"/>
	<polygon points="205.3,124.5 207.6,124.6 208.1,122.4 205.8,122.3 	"/>
	<polygon points="206,121.5 208.2,121.6 208.7,119.4 206.4,119.3 	"/>
	<polygon points="199.7,121.3 202,121.4 202.4,119.2 200.1,119.1 	"/>
	<polygon points="190.1,117.9 190.5,115.7 188.2,115.6 187.8,117.8 	"/>
	<polygon points="195.8,125 195.4,127.2 197.6,127.3 198,125.1 	"/>
	<polygon points="199.1,124.3 201.3,124.4 201.8,122.2 199.5,122.1 	"/>
	<polygon points="167.6,123.9 167.1,126.1 169.4,126.2 169.9,124 	"/>
	<polygon points="202.6,118.4 203,116.2 200.7,116.1 200.3,118.3 	"/>
	<polygon points="180.9,120.6 183.2,120.7 183.6,118.5 181.4,118.4 	"/>
	<polygon points="183.8,117.7 184.3,115.5 182,115.4 181.5,117.6 	"/>
	<polygon points="196.6,121.2 198.8,121.3 199.2,119.1 197.1,119 	"/>
	<polygon points="192.8,124.1 195.1,124.2 195.6,122 193.3,121.9 	"/>
	<polygon points="186.4,124.6 186,126.8 188.2,126.9 188.7,124.7 	"/>
	<polygon points="196.3,118.2 196.8,116 194.5,115.9 194.1,118.1 	"/>
	<polygon points="193.5,121.1 195.7,121.2 196.2,119 193.9,118.9 	"/>
	<polygon points="199.4,118.3 199.9,116.1 197.7,116 197.2,118.2 	"/>
	<polygon points="145.5,123.1 145,125.3 147.5,125.4 147.9,123.2 	"/>
	<polygon points="187.2,120.8 189.5,120.9 189.9,118.7 187.6,118.6 	"/>
	<polygon points="164.5,123.8 164,126 166.2,126.1 166.7,123.9 	"/>
	<polygon points="146.1,120.1 145.6,122.3 148.1,122.4 148.5,120.2 	"/>
	<polygon points="193.2,118 193.6,115.8 191.4,115.8 191,118 	"/>
	<polygon points="186.6,123.8 188.8,123.9 189.3,121.7 187,121.6 	"/>
	<polygon points="146.7,117.1 146.2,119.3 148.7,119.4 149.1,117.2 	"/>
	<polygon points="177,124.3 176.6,126.5 178.8,126.6 179.3,124.4 	"/>
	<polygon points="147.3,114.1 146.8,116.3 149.3,116.4 149.7,114.2 	"/>
	<polygon points="180.1,124.4 179.7,126.6 182,126.7 182.4,124.5 	"/>
	<polygon points="183.3,124.5 182.9,126.7 185.1,126.8 185.5,124.6 	"/>
	<polygon points="189.7,123.9 192,124 192.4,121.8 190.2,121.8 	"/>
	<polygon points="190.3,121 192.6,121 193,118.8 190.8,118.8 	"/>
	<polygon points="180.6,117.6 181.1,115.4 178.9,115.3 178.4,117.5 	"/>
	<polygon points="162.1,119.9 164.4,120 164.8,117.8 162.5,117.7 	"/>
	<polygon points="165,117 165.4,114.8 163.1,114.7 162.7,116.9 	"/>
	<polygon points="148.9,122.4 151.2,122.5 151.7,120.3 149.4,120.2 	"/>
	<polygon points="158.4,122.8 160.6,122.9 161,120.7 158.8,120.6 	"/>
	<polygon points="159,119.8 161.2,119.9 161.7,117.7 159.4,117.6 	"/>
	<polygon points="155.6,116.6 156,114.4 153.8,114.3 153.3,116.5 	"/>
	<polygon points="161.5,122.9 163.8,123 164.2,120.8 161.9,120.7 	"/>
	<polygon points="149.6,119.4 151.8,119.5 152.3,117.3 150,117.2 	"/>
	<polygon points="165.2,120 167.5,120.1 167.9,117.9 165.7,117.8 	"/>
	<polygon points="168.1,117.1 168.5,114.9 166.3,114.8 165.9,117 	"/>
	<polygon points="164.6,123 166.9,123.1 167.3,120.9 165.1,120.8 	"/>
	<polygon points="202.2,124.4 204.5,124.5 204.9,122.3 202.7,122.2 	"/>
	<polygon points="202.8,121.4 205.1,121.5 205.5,119.3 203.3,119.2 	"/>
	<polygon points="198.9,125.1 198.5,127.3 200.7,127.4 201.2,125.2 	"/>
	<polygon points="208.8,118.6 209.3,116.4 207,116.3 206.6,118.5 	"/>
	<polygon points="202.1,125.2 201.6,127.4 203.8,127.5 204.3,125.3 	"/>
	<polygon points="177.2,123.5 179.4,123.6 179.9,121.4 177.6,121.3 	"/>
	<polygon points="152.1,122.5 154.3,122.6 154.8,120.4 152.6,120.3 	"/>
	<polygon points="152.7,119.5 154.9,119.6 155.4,117.4 153.2,117.3 	"/>
	<polygon points="155.8,119.7 158.1,119.7 158.5,117.5 156.3,117.5 	"/>
	<polygon points="155.2,122.7 157.5,122.7 157.9,120.5 155.7,120.5 	"/>
	<polygon points="161.8,116.9 162.3,114.7 160,114.6 159.6,116.8 	"/>
	<polygon points="158.2,123.6 157.8,125.8 160,125.9 160.4,123.7 	"/>
	<polygon points="174,123.4 176.3,123.4 176.8,121.2 174.5,121.2 	"/>
	<polygon points="174.7,120.4 176.9,120.4 177.4,118.2 175.1,118.2 	"/>
	<polygon points="177.5,117.4 178,115.2 175.7,115.2 175.3,117.4 	"/>
	<polygon points="155.1,123.5 154.6,125.7 156.9,125.7 157.3,123.5 	"/>
	<polygon points="189.6,124.8 189.1,126.9 191.3,127 191.8,124.8 	"/>
	<polygon points="205.2,125.3 204.7,127.5 207,127.6 207.4,125.4 	"/>
	<polygon points="177.8,120.5 180,120.6 180.5,118.4 178.3,118.3 	"/>
	<polygon points="170.9,123.2 173.2,123.3 173.6,121.1 171.4,121 	"/>
	<polygon points="161.3,123.7 160.9,125.9 163.1,126 163.6,123.8 	"/>
	<polygon points="151.9,123.3 151.5,125.5 153.7,125.6 154.2,123.4 	"/>
	<polygon points="168.4,120.1 170.6,120.2 171.1,118 168.8,117.9 	"/>
	<polygon points="148.8,123.2 148.3,125.4 150.6,125.5 151.1,123.3 	"/>
	<polygon points="205.7,118.5 206.1,116.3 203.9,116.2 203.5,118.4 	"/>
	<polygon points="171.2,117.2 171.7,115 169.4,114.9 169,117.1 	"/>
	<polygon points="152.4,116.5 152.9,114.3 150.6,114.2 150.2,116.4 	"/>
	<polygon points="167.7,123.1 170,123.2 170.5,121 168.2,120.9 	"/>
	<polygon points="171.5,120.2 173.8,120.3 174.2,118.1 172,118 	"/>
	<polygon points="158.7,116.7 159.2,114.5 156.9,114.5 156.4,116.7 	"/>
	<polygon points="174.4,117.3 174.8,115.1 172.6,115 172.1,117.2 	"/>
</g>
<path d="M170.9,127.9l14,0.5c0.3,0,0.5,0.3,0.4,0.6l-0.8,4.1c-0.1,0.3-0.4,0.6-0.7,0.5l-14-0.5c-0.3,0-0.5-0.3-0.4-0.6l0.8-4.1
	C170.2,128.2,170.6,127.9,170.9,127.9z"/>
</svg>
